<svg width="33" height="22" viewBox="0 0 33 22" fill="none" xmlns="http://www.w3.org/2000/svg">
<path d="M13.2677 0.824464C13.7687 0.824464 14.1982 1.00341 14.5561 1.36129C14.8424 1.71918 14.9856 2.14864 14.9856 2.64969C14.9856 3.22231 14.8782 3.79492 14.6635 4.36754L8.97306 19.0767C8.61518 19.7925 8.25729 20.3651 7.8994 20.7945C7.46994 21.2956 6.78995 21.5461 5.85945 21.5461L2.31637 21.5461C1.74375 21.5461 1.31429 21.3314 1.02798 20.9019C0.670094 20.4724 0.562729 19.8998 0.705884 19.184L3.06793 3.93807C3.13951 3.07915 3.42582 2.32759 3.92686 1.68339C4.42791 1.11077 5.17947 0.824463 6.18155 0.824463L13.2677 0.824464ZM30.4463 0.824465C30.9473 0.824465 31.3768 1.00341 31.7347 1.36129C32.021 1.71918 32.1641 2.14865 32.1641 2.64969C32.1641 3.22231 32.0567 3.79493 31.842 4.36754L26.1516 19.0767C25.7937 19.7925 25.4001 20.3651 24.9706 20.7945C24.5411 21.2956 23.8969 21.5461 23.038 21.5461H19.4949C18.9223 21.5461 18.4928 21.3314 18.2065 20.9019C17.8487 20.4724 17.7413 19.8998 17.8844 19.184L20.2465 3.93808C20.3181 3.07915 20.6044 2.32759 21.1054 1.68339C21.6065 1.11077 22.3222 0.824464 23.2527 0.824464L30.4463 0.824465Z" fill="#091242"/>
</svg>
